<?xml version="1.0" encoding="UTF-8"?>
<svg width="1063px" height="1063px" viewBox="0 0 1063 1063" version="1.1" xmlns="http://www.w3.org/2000/svg" xmlns:xlink="http://www.w3.org/1999/xlink">
    <title>Logo_Cible 1063px</title>
    <g id="Logo_Cible-1063px" stroke="none" stroke-width="1" fill="none" fill-rule="evenodd">
        <g id="Teezily" transform="translate(70.000000, 70.000000)" fill="#FFFFFF">
            <path d="M452.97112,2.59896358 C447.101444,7.21765541 446.319785,11.0979357 446.319785,35.5379101 L446.319785,57.900197 L438.778228,57.921915 C434.631095,57.9363937 424.455059,58.7399592 416.160793,59.7100292 C352.860927,67.1086234 296.776927,87.1688037 242.444422,121.845189 C236.697784,125.515529 220.833011,136.338326 218.336046,138.292944 C144.527215,196.098986 95.3623411,268.738412 71.4421424,355.313546 C65.3046754,377.545525 59.3698607,412.65627 58.2407983,433.440383 L57.5387532,446.413261 L34.1396602,446.413261 C4.61757541,446.413261 0,448.454752 0,461.492783 C0,474.668362 4.23398372,476.572305 33.5534163,476.572305 L57.5387532,476.572305 L58.2407983,489.545182 C61.3674325,547.191958 82.2478479,614.633546 112.877282,666.003824 C126.353654,688.605009 132.34637,697.053306 153.523526,723.317591 C164.669398,737.130231 198.425466,769.099107 218.336046,784.692621 C275.303031,829.308605 372.800457,864.85371 438.778228,865.063651 L446.319785,865.085369 L446.319785,887.447656 C446.319785,916.824852 448.954264,923 461.482513,923 C475.675406,923 477.680215,918.678121 477.680215,888.055759 L477.680215,865.085369 L485.822491,865.063651 C498.683669,865.020215 534.886039,860.184343 548.847329,856.637072 C581.032843,848.45663 584.528594,847.421406 604.337848,840.174838 C617.133887,835.490992 616.641732,835.708172 639.57762,824.762307 C655.789797,817.030704 680.238339,802.83438 688.952384,796.094564 C691.369735,794.219578 693.902888,792.69208 694.575983,792.69208 C695.256315,792.69208 695.994548,792.279438 696.211676,791.772685 C696.436041,791.265932 700.959528,787.631789 706.264673,783.700833 C726.443043,768.737141 749.096666,747.721369 765.504257,728.747088 C768.088073,725.757245 770.476474,723.042497 770.81664,722.709487 C772.799737,720.776587 782.367816,708.694147 788.476333,700.390636 C832.777554,640.217335 859.737536,567.968832 865.129532,494.974679 L866.490197,476.572305 L889.874815,476.572305 C919.816679,476.572305 924,474.762473 924,461.782356 C924,448.302726 919.802204,446.413261 889.874815,446.413261 L866.490197,446.413261 L865.129532,428.010887 C859.759249,355.328025 833.233522,283.948242 789.011914,223.195794 C783.236326,215.268729 780.247206,211.511517 768.99277,198.082562 C760.589941,188.041613 743.031574,170.131513 732.529847,160.872411 C718.785685,148.753775 716.180156,146.610933 706.264673,139.270254 C700.959528,135.346538 696.436041,131.719634 696.211676,131.212881 C695.994548,130.706128 695.256315,130.293486 694.575983,130.293486 C693.902888,130.293486 691.369735,128.765988 688.952384,126.891001 C680.238339,120.151186 655.789797,105.954862 639.57762,98.223259 C616.641732,87.2773937 617.133887,87.4945735 604.337848,82.8107277 C584.528594,75.5641595 581.032843,74.5289355 548.847329,66.3484938 C534.886039,62.8012227 498.683669,57.965351 485.822491,57.921915 L477.680215,57.900197 L477.680215,34.611276 C477.680215,4.33640251 475.646455,0.0507198083 461.258148,0 C457.972287,0 455.171344,0.868763974 452.97112,2.59896358 M446.319785,150.114768 L446.319785,178.384348 L439.378947,179.064845 C390.373299,183.907956 346.433957,198.292502 312.424573,220.633071 C308.769596,223.029289 304.948154,225.345874 303.91318,225.780234 C293.903609,229.979045 253.858084,266.92134 240.65674,284.129225 C237.602481,288.110856 234.396234,292.237273 233.527724,293.294215 C221.173177,308.34478 205.706471,337.179027 194.756014,365.571675 C187.59081,384.162272 179.050467,426.273448 178.551074,445.508345 C178.500411,447.419528 121.830168,446.565287 121.830168,444.646865 C121.830168,399.763025 145.916831,323.113011 172.601784,283.086762 C175.200075,279.192003 177.320686,275.789518 177.320686,275.521663 C177.320686,274.956995 196.652259,248.25835 197.730659,247.331716 C198.11425,246.998707 201.957405,242.65511 206.271002,237.674451 C220.77511,220.929884 239.107898,203.895743 256.89063,190.618814 C259.112566,188.961007 261.624006,186.926756 262.463565,186.094233 C263.310362,185.26895 264.533513,184.588453 265.192133,184.588453 C265.843515,184.588453 266.567273,184.139614 266.7844,183.589425 C267.812136,181.033942 294.627367,165.006068 313.626011,155.59494 C348.018987,138.546321 397.046347,124.96534 432.445346,122.670473 C435.760157,122.460532 440.240219,122.185438 442.397017,122.062369 L446.319785,121.845189 L446.319785,150.114768 M513.86811,125.573444 C522.162376,126.833087 535.457808,129.518878 543.419145,131.54589 C551.380482,133.572902 558.820713,135.440649 559.957013,135.701265 C564.639727,136.765446 591.085841,146.661609 599.126791,150.360906 C614.774437,157.549559 630.226668,165.41871 632.173577,167.177867 C633.223026,168.126219 634.467889,168.900827 634.938332,168.900827 C636.631925,168.900827 665.423015,188.649716 674.904243,196.308926 C692.542223,210.563165 721.485302,240.143063 731.277746,253.926745 C731.769901,254.607242 733.420069,256.800758 734.961674,258.791574 C763.325746,295.538407 787.868376,350.658658 796.184355,396.338823 C797.834523,405.416941 802.162595,439.231847 802.162595,443.061452 L802.162595,446.413261 L773.979462,446.413261 L745.79633,446.413261 L744.334339,432.839519 C741.859087,409.876368 736.959246,387.876047 729.786805,367.562491 C722.932817,348.139371 717.815849,337.4686 702.653121,310.965417 C700.937815,307.961096 689.661667,291.636409 688.192438,290.029278 C687.519343,289.290866 685.340832,286.605075 683.350498,284.056832 C637.138556,224.96219 563.97387,186.079754 485.822491,179.093802 L477.680215,178.36263 L477.680215,150.042375 L477.680215,121.722121 L488.232605,122.503968 C494.037144,122.931088 505.573844,124.3138 513.86811,125.573444 M408.235644,301.105451 C409.277856,302.147915 410.13189,305.021928 410.13189,307.490539 C410.13189,327.268386 424.491247,348.14661 444.054423,356.797608 C477.701928,371.688908 516.842755,349.833374 522.321602,313.086541 C524.492876,298.499293 520.989888,299.860287 557.39491,299.491081 L589.20407,299.17255 L632.962473,342.919815 C671.256503,381.215865 676.713638,387.130397 676.713638,390.33018 C676.713638,394.579666 618.856431,453.65259 614.702061,453.65259 C613.493385,453.65259 608.311279,449.569608 603.187073,444.581711 L593.872308,435.510832 L593.068937,466.495159 C592.634682,483.536539 592.272803,526.914598 592.272803,562.894063 C592.272803,618.578981 592.012251,628.518579 590.528547,629.756504 C588.154621,631.725602 344.125169,631.588055 341.751243,629.618957 C340.491905,628.576494 340.122788,609.19681 339.869473,531.757709 L339.565495,435.20678 L332.327916,442.721203 C323.61387,451.770364 319.437787,454.260693 316.0506,452.450861 C309.905896,449.156966 255.725379,392.936338 255.725379,389.852384 C255.725379,387.347576 264.4539,377.994363 299.476544,342.97049 L343.220472,299.208747 L374.776317,299.208747 C401.859337,299.208747 406.607189,299.476602 408.235644,301.105451 M178.536599,477.477221 C178.703063,491.362254 184.587215,523.931995 190.362803,542.935233 C192.070872,548.57467 193.51115,553.461217 193.554576,553.794226 C193.648664,554.496441 195.841651,560.273426 199.293976,568.873748 C218.422897,616.609883 267.732523,677.195827 303.348649,696.727536 C304.687601,697.465948 309.044624,700.187935 313.025292,702.779615 C346.810311,724.794414 390.807554,739.121046 439.378947,743.920721 L446.319785,744.601218 L446.319785,772.95043 L446.319785,801.306881 L436.368114,800.56123 C380.826933,796.413095 324.113263,777.344703 277.698669,747.214616 C271.915844,743.464643 267.008765,739.94633 266.7844,739.396141 C266.567273,738.845952 265.843515,738.397113 265.192133,738.397113 C264.533513,738.397113 263.295887,737.716616 262.441853,736.891333 C261.587818,736.05881 258.794113,733.749464 256.23201,731.758649 C232.347999,713.197009 223.28655,704.603926 200.763204,679.179403 C196.905575,674.821327 177.320686,648.332622 177.320686,647.463903 C177.320686,647.196048 175.200075,643.793563 172.601784,639.898804 C145.916831,599.872555 121.830168,523.22254 121.830168,478.338701 C121.830168,476.84016 126.122052,476.572305 150.179765,476.572305 C165.76951,476.572305 178.529362,476.984947 178.536599,477.477221 M802.162595,479.924114 C802.162595,483.753719 797.834523,517.568625 796.184355,526.646743 C787.998653,571.595736 762.160496,629.814419 735.33079,663.774111 C733.941175,665.533268 731.451448,668.762009 729.786805,670.948286 C728.129399,673.134563 725.690335,676.146124 724.35862,677.637426 C723.034144,679.128728 720.045023,682.632563 717.728998,685.426944 C711.432304,692.992042 685.514534,718.199386 677.922314,724.142875 C674.267336,726.99517 670.243242,730.274586 668.969428,731.432879 C667.044232,733.177557 659.234885,738.42607 633.845457,755.025852 C622.337707,762.554754 571.602278,784.692621 559.957013,787.277062 C558.820713,787.523199 552.466119,789.144809 545.836497,790.867769 C531.129736,794.697374 502.548536,799.475331 488.232605,800.503316 L477.680215,801.263445 L477.680215,772.935951 L477.680215,744.601218 L484.613816,743.920721 C517.030932,740.720938 535.595322,736.413537 567.672272,724.656867 C608.238903,709.794525 653.647474,676.102688 683.328785,638.856341 C685.977739,635.540728 688.583267,632.28303 689.126086,631.617012 C690.978906,629.358341 703.25384,611.665422 703.25384,611.25278 C703.25384,611.028361 705.946219,606.170771 709.23208,600.451701 C728.165587,567.541712 740.006266,530.331561 744.334339,490.146047 L745.79633,476.572305 L773.979462,476.572305 L802.162595,476.572305 L802.162595,479.924114" id="Combined-Shape"></path>
        </g>
    </g>
</svg>